<svg width="18" height="18" viewBox="0 0 18 18" fill="none" xmlns="http://www.w3.org/2000/svg">
<path d="M15.75 4.48499C13.2525 4.23749 10.74 4.10999 8.235 4.10999C6.75 4.10999 5.265 4.18498 3.78 4.33499L2.25 4.48499" stroke="black" stroke-width="1.35" stroke-linecap="round" stroke-linejoin="round"/>
<path d="M6.375 3.7275L6.54001 2.745C6.66 2.03249 6.75 1.5 8.0175 1.5H9.98246C11.25 1.5 11.3475 2.0625 11.46 2.75249L11.625 3.7275" stroke="black" stroke-width="1.35" stroke-linecap="round" stroke-linejoin="round"/>
<path d="M14.1376 6.85498L13.6501 14.4075C13.5675 15.5849 13.5 16.5 11.4075 16.5H6.59255C4.50005 16.5 4.43255 15.5849 4.35004 14.4075L3.86255 6.85498" stroke="black" stroke-width="1.35" stroke-linecap="round" stroke-linejoin="round"/>
<path d="M7.74756 12.375H10.245" stroke="black" stroke-width="1.35" stroke-linecap="round" stroke-linejoin="round"/>
<path d="M7.125 9.375H10.875" stroke="black" stroke-width="1.35" stroke-linecap="round" stroke-linejoin="round"/>
</svg>
