<svg width="25" height="24" viewBox="0 0 25 24" fill="none" xmlns="http://www.w3.org/2000/svg">
<path d="M12.5 2C7 2 2.5 6.58 2.5 12.18V20.07C2.5 21.33 3.25 21.67 4.17 20.83L5.17 19.92C5.54 19.58 6.14 19.58 6.51 19.92L8.51 21.75C8.88 22.09 9.48 22.09 9.85 21.75L11.85 19.92C12.22 19.58 12.82 19.58 13.19 19.92L15.19 21.75C15.56 22.09 16.16 22.09 16.53 21.75L18.53 19.92C18.9 19.58 19.5 19.58 19.87 19.92L20.87 20.83C21.79 21.67 22.54 21.33 22.54 20.07V12.18C22.5 6.58 18 2 12.5 2ZM12.5 6.62C13.81 6.62 14.88 7.69 14.88 9C14.88 10.31 13.81 11.38 12.5 11.38C11.19 11.38 10.12 10.31 10.12 9C10.12 7.69 11.19 6.62 12.5 6.62ZM16.95 14.6C15.64 15.58 14.07 16.07 12.5 16.07C10.93 16.07 9.36 15.58 8.05 14.6C7.72 14.35 7.65 13.88 7.9 13.55C8.15 13.22 8.62 13.15 8.95 13.4C11.04 14.97 13.96 14.97 16.05 13.4C16.38 13.15 16.85 13.22 17.1 13.55C17.35 13.88 17.28 14.35 16.95 14.6Z" fill="#AFB8CE"/>
</svg>
