<svg width="38" height="38" viewBox="0 0 38 38" fill="none" xmlns="http://www.w3.org/2000/svg">
<path d="M26.9484 4.55996C26.1884 3.79996 24.6684 3.16663 23.5917 3.16663H14.4084C13.3317 3.16663 11.8117 3.79996 11.0517 4.55996L4.56008 11.0516C3.80008 11.8116 3.16675 13.3316 3.16675 14.4083V23.5916C3.16675 24.6683 3.80008 26.1883 4.56008 26.9483L6.98258 29.3708L29.3709 6.98246L26.9484 4.55996Z" fill="#006FEE"/>
<path d="M33.4401 11.0516L31.0492 8.66077L8.66089 31.0491L11.0517 33.4399C11.8117 34.1999 13.3317 34.8333 14.4084 34.8333H23.5917C24.6684 34.8333 26.1884 34.1999 26.9484 33.4399L33.4401 26.9483C34.2001 26.1883 34.8334 24.6683 34.8334 23.5916V14.4083C34.8334 13.3316 34.2001 11.8116 33.4401 11.0516Z" fill="#006FEE"/>
<path d="M3.94252 32.4108C3.48335 32.87 3.48335 33.63 3.94252 34.0892C4.18002 34.3267 4.48085 34.4375 4.78169 34.4375C5.08252 34.4375 5.38335 34.3267 5.62085 34.0892L8.66085 31.0492L6.98252 29.3708L3.94252 32.4108Z" fill="#006FEE"/>
<path d="M34.0892 5.62085C34.5484 5.16169 34.5484 4.40169 34.0892 3.94252C33.63 3.48335 32.87 3.48335 32.4109 3.94252L29.3708 6.98252L31.0492 8.66085L34.0892 5.62085Z" fill="#006FEE"/>
</svg>
