<svg width="24" height="24" viewBox="0 0 24 24" fill="none" xmlns="http://www.w3.org/2000/svg">
<path d="M22.4174 11.9928H19.8929C19.1389 11.9928 18.528 12.6226 18.528 13.3998V17.1768C18.528 17.954 17.917 18.5838 17.163 18.5838H7.11963C6.36565 18.5838 5.75476 19.2135 5.75476 19.9907V22.593C5.75476 23.3702 6.36565 24 7.11963 24H17.7443C18.4984 24 19.1006 23.3702 19.1006 22.593V20.5052C19.1006 19.728 19.7116 19.1766 20.4655 19.1766H22.4169C23.1709 19.1766 23.7819 18.5469 23.7819 17.7697V13.3835C23.7819 12.6063 23.1714 11.9928 22.4174 11.9928Z" fill="white"/>
<path d="M5.75434 6.82314C5.75434 6.04595 6.36532 5.41619 7.1193 5.41619H17.1566C17.9106 5.41619 18.5215 4.78644 18.5215 4.00922V1.40696C18.5215 0.629762 17.9106 0 17.1566 0H6.53744C5.78346 0 5.17257 0.629762 5.17257 1.40696V3.4121C5.17257 4.1893 4.56159 4.81905 3.80761 4.81905H1.86493C1.11094 4.81905 0.5 5.4488 0.5 6.226V10.617C0.5 11.3942 1.1135 11.9924 1.86749 11.9924H4.392C5.14597 11.9924 5.75695 11.3626 5.75695 10.5854L5.75434 6.82314Z" fill="white"/>
<path d="M10.9531 9.25751H13.378C14.1682 9.25751 14.8094 9.9188 14.8094 10.7329V13.2325C14.8094 14.0471 14.1677 14.7079 13.378 14.7079H10.9531C10.1628 14.7079 9.52173 14.0466 9.52173 13.2325V10.7329C9.52173 9.91832 10.1634 9.25751 10.9531 9.25751Z" fill="white"/>
</svg>
