<svg width="296" height="44" viewBox="0 0 296 44" fill="none" xmlns="http://www.w3.org/2000/svg">
<path d="M0 2C0 0.895431 0.895431 0 2 0H26V12H6C2.68629 12 0 9.31371 0 6V2Z" fill="#006FEE"/>
<path d="M6 13H26V25H12C8.68629 25 6 22.3137 6 19V13Z" fill="#006FEE"/>
<path d="M12 26H26V38H18C14.6863 38 12 35.3137 12 32V26Z" fill="#006FEE"/>
<path d="M27 0H33C36.3137 0 39 2.55198 39 5.7V36.1C39 37.1493 38.1046 38 37 38H27V0Z" fill="#006FEE"/>
<path d="M288.793 20C290.969 20 292.714 20.6556 294.028 21.9667C295.343 23.2778 296 25.2222 296 27.8V37.7917C296 37.9067 295.909 38 295.798 38H292.162C292.05 38 291.96 37.9067 291.96 37.7917V28.3333C291.96 26.7778 291.604 25.6111 290.893 24.8333C290.182 24.0333 289.17 23.6333 287.855 23.6333C286.369 23.6333 285.194 24.1 284.333 25.0333C283.471 25.9444 283.04 27.2667 283.04 29V37.7917C283.04 37.9067 282.949 38 282.838 38H279.202C279.09 38 279 37.9067 279 37.7917V20.4083C279 20.2933 279.09 20.2 279.202 20.2H282.644C282.755 20.2 282.846 20.2933 282.846 20.4083V21.9269C282.846 22.1215 283.088 22.2151 283.221 22.0777C283.82 21.4614 284.535 20.98 285.367 20.6333C286.379 20.2111 287.521 20 288.793 20Z" fill="black"/>
<path d="M274.801 20.1974C274.911 20.1974 275 20.2895 275 20.4031V37.564C275 37.6776 274.911 37.7697 274.801 37.7697H271.414C271.304 37.7697 271.215 37.6776 271.215 37.564V36.0766C271.215 35.8831 270.975 35.7915 270.844 35.93C270.258 36.5516 269.566 37.0332 268.767 37.3748C267.813 37.7916 266.753 38 265.586 38C263.933 38 262.449 37.6271 261.134 36.8812C259.841 36.1353 258.823 35.0823 258.081 33.7221C257.36 32.362 257 30.7824 257 28.9835C257 27.1846 257.36 25.6161 258.081 24.2779C258.823 22.9177 259.841 21.8647 261.134 21.1188C262.449 20.3729 263.933 20 265.586 20C266.689 20 267.696 20.1974 268.608 20.5923C269.381 20.9197 270.067 21.3752 270.666 21.9589C270.798 22.0877 271.025 21.9943 271.025 21.8066V20.4031C271.025 20.2895 271.114 20.1974 271.223 20.1974H274.801ZM266.032 34.479C267.495 34.479 268.703 33.9744 269.657 32.9653C270.611 31.9561 271.088 30.6289 271.088 28.9835C271.088 27.3382 270.611 26.011 269.657 25.0018C268.703 23.9927 267.495 23.4881 266.032 23.4881C264.569 23.4881 263.36 23.9927 262.406 25.0018C261.473 26.011 261.007 27.3382 261.007 28.9835C261.007 30.6289 261.473 31.9561 262.406 32.9653C263.36 33.9744 264.569 34.479 266.032 34.479Z" fill="black"/>
<path d="M246.133 20C248.244 20 249.917 20.6556 251.15 21.9667C252.383 23.2556 253 25.2 253 27.8V37.7917C253 37.9067 252.912 38 252.804 38H249.276C249.168 38 249.081 37.9067 249.081 37.7917V28.3333C249.081 26.7778 248.757 25.6111 248.109 24.8333C247.461 24.0333 246.53 23.6333 245.318 23.6333C244.001 23.6333 242.945 24.1 242.151 25.0333C241.357 25.9444 240.96 27.2556 240.96 28.9667V37.7917C240.96 37.9067 240.872 38 240.764 38H237.236C237.128 38 237.04 37.9067 237.04 37.7917V28.3333C237.04 26.7778 236.716 25.6111 236.068 24.8333C235.42 24.0333 234.49 23.6333 233.278 23.6333C231.94 23.6333 230.874 24.0889 230.079 25C229.306 25.9111 228.919 27.2333 228.919 28.9667V37.7917C228.919 37.9067 228.832 38 228.723 38H225.196C225.088 38 225 37.9067 225 37.7917V20.4083C225 20.2933 225.088 20.2 225.196 20.2H228.535C228.643 20.2 228.731 20.2933 228.731 20.4083V21.8912C228.731 22.0861 228.966 22.1795 229.096 22.0416C229.654 21.4468 230.316 20.9774 231.083 20.6333C232.023 20.2111 233.069 20 234.218 20C235.472 20 236.58 20.2556 237.542 20.7667C238.438 21.2128 239.161 21.8624 239.709 22.7155C239.786 22.8353 239.952 22.8455 240.041 22.7353C240.703 21.9132 241.532 21.2681 242.527 20.8C243.614 20.2667 244.816 20 246.133 20Z" fill="black"/>
<path d="M220.793 20.1943C220.907 20.1943 221 20.285 221 20.3968V34.8664C221 40.9555 217.822 44 211.467 44C209.768 44 208.157 43.7841 206.634 43.3522C205.181 42.9608 203.97 42.3925 202.999 41.6474C202.919 41.5856 202.899 41.4749 202.952 41.389L204.59 38.697C204.655 38.5903 204.802 38.5656 204.903 38.6414C205.643 39.1986 206.551 39.646 207.627 39.9838C208.819 40.3725 210.021 40.5668 211.235 40.5668C213.177 40.5668 214.6 40.135 215.505 39.2713C216.41 38.4076 216.862 37.0904 216.862 35.3198V34.9344C216.862 34.7496 216.626 34.6575 216.488 34.7835C215.858 35.3585 215.122 35.8072 214.28 36.1296C213.265 36.5182 212.151 36.7126 210.937 36.7126C209.26 36.7126 207.737 36.3671 206.369 35.6761C205.023 34.9636 203.953 33.9703 203.158 32.6964C202.386 31.4224 202 29.9649 202 28.3239C202 26.6829 202.386 25.2362 203.158 23.9838C203.953 22.7099 205.023 21.7274 206.369 21.0364C207.737 20.3455 209.26 20 210.937 20C212.217 20 213.376 20.2051 214.413 20.6154C215.287 20.954 216.041 21.4398 216.675 22.0727C216.811 22.2085 217.061 22.1182 217.061 21.9281V20.3968C217.061 20.285 217.153 20.1943 217.268 20.1943H220.793ZM211.566 33.2794C213.133 33.2794 214.413 32.8259 215.406 31.919C216.421 30.9906 216.928 29.7922 216.928 28.3239C216.928 26.8772 216.421 25.7004 215.406 24.7935C214.413 23.8866 213.133 23.4332 211.566 23.4332C209.977 23.4332 208.675 23.8866 207.66 24.7935C206.667 25.7004 206.171 26.8772 206.171 28.3239C206.171 29.7922 206.667 30.9906 207.66 31.919C208.675 32.8259 209.977 33.2794 211.566 33.2794Z" fill="black"/>
<path d="M190.793 20C192.969 20 194.714 20.6556 196.028 21.9667C197.343 23.2778 198 25.2222 198 27.8V37.7917C198 37.9067 197.91 38 197.798 38H194.162C194.05 38 193.96 37.9067 193.96 37.7917V28.3333C193.96 26.7778 193.604 25.6111 192.893 24.8333C192.182 24.0333 191.17 23.6333 189.855 23.6333C188.369 23.6333 187.194 24.1 186.333 25.0333C185.471 25.9444 185.04 27.2667 185.04 29V37.7917C185.04 37.9067 184.949 38 184.838 38H181.202C181.09 38 181 37.9067 181 37.7917V20.4083C181 20.2933 181.09 20.2 181.202 20.2H184.644C184.756 20.2 184.846 20.2933 184.846 20.4083V21.9269C184.846 22.1215 185.088 22.2151 185.221 22.0777C185.82 21.4614 186.535 20.98 187.367 20.6333C188.38 20.2111 189.521 20 190.793 20Z" fill="black"/>
<path d="M173 20.2107C173 20.0943 173.089 20 173.2 20H176.8C176.91 20 177 20.0943 177 20.2107V37.7893C177 37.9057 176.91 38 176.8 38H173.2C173.089 38 173 37.9057 173 37.7893V20.2107Z" fill="black"/>
<path d="M168.803 20C168.912 20 169 20.0931 169 20.2079V29.8152C169 32.4103 168.359 34.4288 167.078 35.8706C165.796 37.2902 163.958 38 161.562 38C159.103 38 157.3 37.1663 156.154 35.4988C156.071 35.3779 155.896 35.3767 155.812 35.4969C155.251 36.3003 154.552 36.9129 153.715 37.3346C152.812 37.7782 151.709 38 150.406 38C148.011 38 146.172 37.2902 144.891 35.8706C143.63 34.4288 143 32.4103 143 29.8152V20.2079C143 20.0931 143.088 20 143.197 20H146.742C146.851 20 146.939 20.0931 146.939 20.2079V29.4492C146.939 31.1349 147.212 32.3771 147.759 33.1756C148.326 33.9741 149.219 34.3734 150.438 34.3734C151.656 34.3734 152.56 33.9741 153.148 33.1756C153.736 32.3549 154.03 31.1128 154.03 29.4492V20.2079C154.03 20.0931 154.118 20 154.227 20H157.773C157.881 20 157.97 20.0931 157.97 20.2079V29.4492C157.97 31.1128 158.264 32.3549 158.852 33.1756C159.44 33.9741 160.344 34.3734 161.562 34.3734C162.781 34.3734 163.663 33.9741 164.21 33.1756C164.777 32.3771 165.061 31.1349 165.061 29.4492V20.2079C165.061 20.0931 165.149 20 165.258 20H168.803Z" fill="black"/>
<path d="M72.8029 20C72.9117 20 72.9999 20.0931 72.9999 20.2079V29.8152C72.9999 32.4103 72.3591 34.4288 71.0775 35.8706C69.7959 37.2902 67.9575 38 65.5623 38C63.1029 38 61.3 37.1663 60.1536 35.4988C60.0705 35.3779 59.8964 35.3767 59.8124 35.4969C59.2511 36.3003 58.5519 36.9129 57.7151 37.3346C56.8116 37.7782 55.7086 38 54.406 38C52.0108 38 50.1724 37.2902 48.8908 35.8706C47.6302 34.4288 46.9999 32.4103 46.9999 29.8152V20.2079C46.9999 20.0931 47.0881 20 47.1969 20H50.7423C50.8511 20 50.9393 20.0931 50.9393 20.2079V29.4492C50.9393 31.1349 51.2124 32.3771 51.7587 33.1756C52.326 33.9741 53.2189 34.3734 54.4375 34.3734C55.6561 34.3734 56.5595 33.9741 57.1478 33.1756C57.7361 32.3549 58.0302 31.1128 58.0302 29.4492V20.2079C58.0302 20.0931 58.1184 20 58.2272 20H61.7726C61.8814 20 61.9696 20.0931 61.9696 20.2079V29.4492C61.9696 31.1128 62.2637 32.3549 62.852 33.1756C63.4403 33.9741 64.3437 34.3734 65.5623 34.3734C66.7809 34.3734 67.6633 33.9741 68.2096 33.1756C68.7769 32.3771 69.0605 31.1349 69.0605 29.4492V20.2079C69.0605 20.0931 69.1487 20 69.2575 20H72.8029Z" fill="#006FEE"/>
<path d="M108.919 20.4914C110.661 20.4914 112.214 20.8542 113.577 21.5797C114.962 22.3052 116.045 23.3295 116.827 24.6525C117.609 25.9755 118 27.5013 118 29.2297C118 30.9582 117.609 32.4946 116.827 33.8389C116.045 35.1619 114.962 36.1862 113.577 36.9117C112.214 37.6372 110.661 38 108.919 38C107.69 38 106.562 37.7973 105.534 37.3918C104.711 37.0596 103.992 36.5914 103.378 35.987C103.241 35.8519 102.988 35.9409 102.988 36.1291V37.5759C102.988 37.6864 102.894 37.7759 102.778 37.7759H99.2093C99.0937 37.7759 98.9999 37.6864 98.9999 37.5759V14.2001C98.9999 14.0896 99.0937 14 99.2093 14H102.979C103.095 14 103.189 14.0896 103.189 14.2001V22.2488C103.189 22.4313 103.428 22.522 103.567 22.3964C104.194 21.8289 104.906 21.3859 105.702 21.0676C106.685 20.6835 107.757 20.4914 108.919 20.4914ZM108.45 34.5751C109.991 34.5751 111.253 34.0843 112.236 33.1027C113.242 32.1211 113.744 30.8301 113.744 29.2297C113.744 27.6293 113.242 26.3383 112.236 25.3567C111.253 24.3751 109.991 23.8843 108.45 23.8843C107.444 23.8843 106.54 24.1084 105.735 24.5565C104.931 24.9833 104.294 25.6021 103.825 26.413C103.356 27.2239 103.122 28.1628 103.122 29.2297C103.122 30.2967 103.356 31.2356 103.825 32.0464C104.294 32.8573 104.931 33.4868 105.735 33.9349C106.54 34.3617 107.444 34.5751 108.45 34.5751Z" fill="#006FEE"/>
<path d="M86.8428 34.5119C88.6792 34.5119 90.2223 33.9272 91.4719 32.758C91.5596 32.6759 91.6989 32.681 91.7772 32.7719L93.6998 35.0067C93.7648 35.0822 93.7664 35.1935 93.7015 35.269C92.9474 36.1472 91.9933 36.8162 90.8394 37.2761C89.6283 37.7587 88.263 38 86.7437 38C84.8059 38 83.0994 37.6161 81.6241 36.8483C80.1487 36.0804 79.0037 35.0165 78.189 33.6563C77.3963 32.2742 76.9999 30.7166 76.9999 28.9835C76.9999 27.2724 77.3853 25.7367 78.1559 24.3766C78.9487 22.9945 80.0276 21.9196 81.3929 21.1517C82.7801 20.3839 84.3435 20 86.0831 20C87.7346 20 89.2319 20.362 90.5751 21.0859C91.9403 21.7879 93.0193 22.808 93.812 24.1463C94.5795 25.4205 94.9754 26.9107 94.9999 28.6168C95.0013 28.7151 94.9312 28.7997 94.8343 28.8186L81.7394 31.3704C81.6114 31.3954 81.5382 31.531 81.5936 31.6486C82.0158 32.5452 82.6535 33.2363 83.5068 33.7221C84.4316 34.2486 85.5436 34.5119 86.8428 34.5119ZM86.0831 23.2907C84.5637 23.2907 83.3306 23.7843 82.3838 24.7715C81.4589 25.7587 80.9965 27.0859 80.9965 28.7532C80.9965 28.7703 81.0121 28.7831 81.0289 28.7799L90.7541 26.9191C90.8716 26.8966 90.9458 26.7794 90.9103 26.6656C90.6062 25.6881 90.043 24.8922 89.2209 24.2779C88.3621 23.6197 87.3162 23.2907 86.0831 23.2907Z" fill="#006FEE"/>
<path d="M86.8428 34.5119C88.6792 34.5119 90.2223 33.9272 91.4719 32.758C91.5596 32.6759 91.6989 32.681 91.7772 32.7719L93.6998 35.0067C93.7648 35.0822 93.7664 35.1935 93.7015 35.269C92.9474 36.1472 91.9933 36.8162 90.8394 37.2761C89.6283 37.7587 88.263 38 86.7437 38C84.8059 38 83.0994 37.6161 81.6241 36.8483C80.1487 36.0804 79.0037 35.0165 78.189 33.6563C77.3963 32.2742 76.9999 30.7166 76.9999 28.9835C76.9999 27.2724 77.3853 25.7367 78.1559 24.3766C78.9487 22.9945 80.0276 21.9196 81.3929 21.1517C82.7801 20.3839 84.3435 20 86.0831 20C87.7346 20 89.2319 20.362 90.5751 21.0859C91.9403 21.7879 93.0193 22.808 93.812 24.1463C94.5795 25.4205 94.9754 26.9107 94.9999 28.6168C95.0013 28.7151 94.9312 28.7997 94.8343 28.8186L81.7394 31.3704C81.6114 31.3954 81.5382 31.531 81.5936 31.6486C82.0158 32.5452 82.6535 33.2363 83.5068 33.7221C84.4316 34.2486 85.5436 34.5119 86.8428 34.5119ZM86.0831 23.2907C84.5637 23.2907 83.3306 23.7843 82.3838 24.7715C81.4589 25.7587 80.9965 27.0859 80.9965 28.7532C80.9965 28.7703 81.0121 28.7831 81.0289 28.7799L90.7541 26.9191C90.8716 26.8966 90.9458 26.7794 90.9103 26.6656C90.6062 25.6881 90.043 24.8922 89.2209 24.2779C88.3621 23.6197 87.3162 23.2907 86.0831 23.2907Z" fill="#006FEE"/>
<path d="M127.19 38C125.88 38 124.578 37.8399 123.285 37.5197C122.064 37.2013 121.02 36.7626 120.151 36.2037C120.065 36.148 120.037 36.035 120.086 35.9445L121.591 33.1638C121.647 33.0596 121.781 33.0272 121.881 33.091C122.557 33.5227 123.33 33.8697 124.201 34.132C125.152 34.4185 126.113 34.5618 127.082 34.5618C128.178 34.5618 129.039 34.3596 129.668 33.9551C130.296 33.5506 130.61 32.9944 130.61 32.2865C130.61 31.6124 130.332 31.0815 129.775 30.6938C129.219 30.3062 128.321 30.1124 127.082 30.1124H125.29C125.179 30.1124 125.09 30.0228 125.09 29.9124V27.4865C125.09 27.4356 125.109 27.3867 125.144 27.3496L130.111 22.0651C130.215 21.9546 130.399 21.9953 130.446 22.1393L130.739 23.0237C130.782 23.1532 130.685 23.2865 130.549 23.2865H121.142C121.032 23.2865 120.942 23.197 120.942 23.0865V20.2C120.942 20.0895 121.032 20 121.142 20H133.938C134.049 20 134.138 20.0895 134.138 20.2V22.5756C134.138 22.6263 134.119 22.6751 134.084 22.7122L129.019 28.1291C128.957 28.1954 128.858 28.2116 128.778 28.1686L127.404 27.4295C127.221 27.331 127.291 27.0534 127.499 27.0534H127.971C130.287 27.0534 132.038 27.5421 133.222 28.5197C134.407 29.4972 135 30.7528 135 32.2865C135 33.2809 134.722 34.2163 134.165 35.0927C133.608 35.9522 132.756 36.6517 131.607 37.191C130.458 37.7303 128.986 38 127.19 38Z" fill="#006FEE"/>
</svg>
